<svg width="40" height="40" viewBox="0 0 40 40" fill="none" xmlns="http://www.w3.org/2000/svg">
<path d="M37.7352 16.7671L27.1003 12.8997L23.2329 2.2648C22.9917 1.60109 22.552 1.02772 21.9736 0.622533C21.3953 0.21735 20.7062 0 20 0C19.2938 0 18.6047 0.21735 18.0264 0.622533C17.448 1.02772 17.0083 1.60109 16.7671 2.2648L12.8997 12.8997L2.2648 16.7671C1.60109 17.0083 1.02772 17.448 0.622533 18.0264C0.21735 18.6047 0 19.2938 0 20C0 20.7062 0.21735 21.3953 0.622533 21.9736C1.02772 22.552 1.60109 22.9917 2.2648 23.2329L12.8997 27.1003L16.7671 37.7352C17.0083 38.3989 17.448 38.9723 18.0264 39.3775C18.6047 39.7826 19.2938 40 20 40C20.7062 40 21.3953 39.7826 21.9736 39.3775C22.552 38.9723 22.9917 38.3989 23.2329 37.7352L27.1003 27.1003L37.7352 23.2329C38.3989 22.9917 38.9723 22.552 39.3775 21.9736C39.7826 21.3953 40 20.7062 40 20C40 19.2938 39.7826 18.6047 39.3775 18.0264C38.9723 17.448 38.3989 17.0083 37.7352 16.7671ZM24.7795 23.5415C24.4952 23.6448 24.237 23.8092 24.0231 24.0231C23.8092 24.237 23.6448 24.4952 23.5415 24.7795L20 34.5196L16.4585 24.7795C16.3552 24.4952 16.1908 24.237 15.9769 24.0231C15.763 23.8092 15.5048 23.6448 15.2205 23.5415L5.48045 20L15.2205 16.4585C15.5048 16.3552 15.763 16.1908 15.9769 15.9769C16.1908 15.763 16.3552 15.5048 16.4585 15.2205L20 5.48045L23.5415 15.2205C23.6448 15.5048 23.8092 15.763 24.0231 15.9769C24.237 16.1908 24.4952 16.3552 24.7795 16.4585L34.5196 20L24.7795 23.5415Z" fill="white"/>
</svg>
